<?xml version="1.0" standalone="yes"?>

<svg version="1.1" viewBox="0.0 0.0 939.5669291338583 298.7007874015748" fill="none" stroke="none" stroke-linecap="square" stroke-miterlimit="10" xmlns="http://www.w3.org/2000/svg" xmlns:xlink="http://www.w3.org/1999/xlink"><clipPath id="p.0"><path d="m0 0l939.56696 0l0 298.70078l-939.56696 0l0 -298.70078z" clip-rule="nonzero"></path></clipPath><g clip-path="url(#p.0)"><path fill="#000000" fill-opacity="0.0" d="m0 0l939.56696 0l0 298.70078l-939.56696 0z" fill-rule="nonzero"></path><path fill="#000000" fill-opacity="0.0" d="m696.32544 74.514435l124.409485 0l0 129.13387l-124.409485 0z" fill-rule="nonzero"></path><path fill="#000000" d="m750.7314 105.304436q0 -0.78125 0.359375 -1.1875q0.359375 -0.40625 1.03125 -0.40625q0.671875 0 1.046875 0.40625q0.390625 0.40625 0.390625 1.1875q0 0.765625 -0.390625 1.1875q-0.390625 0.40625 -1.046875 0.40625q-0.609375 0 -1.0 -0.375q-0.390625 -0.375 -0.390625 -1.21875zm6.3867188 0q0 -0.78125 0.359375 -1.1875q0.359375 -0.40625 1.03125 -0.40625q0.671875 0 1.046875 0.40625q0.390625 0.40625 0.390625 1.1875q0 0.765625 -0.390625 1.1875q-0.390625 0.40625 -1.046875 0.40625q-0.609375 0 -1.0 -0.375q-0.390625 -0.375 -0.390625 -1.21875zm6.3867188 0q0 -0.78125 0.359375 -1.1875q0.359375 -0.40625 1.03125 -0.40625q0.671875 0 1.046875 0.40625q0.390625 0.40625 0.390625 1.1875q0 0.765625 -0.390625 1.1875q-0.390625 0.40625 -1.046875 0.40625q-0.609375 0 -1.0 -0.375q-0.390625 -0.375 -0.390625 -1.21875z" fill-rule="nonzero"></path><path fill="#000000" fill-opacity="0.0" d="m464.32547 74.50141l221.6063 0l0 129.13385l-221.6063 0z" fill-rule="nonzero"></path><path stroke="#666666" stroke-width="2.0" stroke-linejoin="round" stroke-linecap="butt" d="m464.32547 74.50141l221.6063 0l0 129.13385l-221.6063 0z" fill-rule="nonzero"></path><path fill="#000000" d="m551.16376 94.40079q0 2.59375 -1.78125 4.0q-1.765625 1.40625 -5.078125 1.40625l-2.015625 0l0 6.734375l-1.984375 0l0 -17.140625l4.4375 0q6.421875 0 6.421875 5.0zm-8.875 3.6875l1.796875 0q2.65625 0 3.828125 -0.84375q1.1875 -0.859375 1.1875 -2.75q0 -1.703125 -1.109375 -2.53125q-1.109375 -0.828125 -3.46875 -0.828125l-2.234375 0l0 6.953125zm20.074219 8.453125l-0.390625 -1.828125l-0.09375 0q-0.96875 1.203125 -1.921875 1.640625q-0.953125 0.421875 -2.375 0.421875q-1.921875 0 -3.0 -0.984375q-1.078125 -0.984375 -1.078125 -2.796875q0 -3.890625 6.21875 -4.078125l2.171875 -0.078125l0 -0.796875q0 -1.515625 -0.65625 -2.234375q-0.640625 -0.71875 -2.0625 -0.71875q-1.609375 0 -3.640625 0.984375l-0.59375 -1.484375q0.953125 -0.515625 2.078125 -0.8125q1.125 -0.296875 2.265625 -0.296875q2.296875 0 3.40625 1.03125q1.109375 1.015625 1.109375 3.265625l0 8.765625l-1.4375 0zm-4.40625 -1.375q1.828125 0 2.859375 -0.984375q1.03125 -1.0 1.03125 -2.796875l0 -1.15625l-1.9375 0.078125q-2.328125 0.078125 -3.359375 0.71875q-1.015625 0.640625 -1.015625 1.984375q0 1.0625 0.640625 1.609375q0.640625 0.546875 1.78125 0.546875zm20.363281 -11.46875l0 1.234375l-2.375 0.28125q0.328125 0.40625 0.578125 1.078125q0.265625 0.65625 0.265625 1.484375q0 1.890625 -1.296875 3.015625q-1.28125 1.125 -3.53125 1.125q-0.578125 0 -1.078125 -0.09375q-1.25 0.65625 -1.25 1.640625q0 0.53125 0.4375 0.78125q0.4375 0.25 1.484375 0.25l2.28125 0q2.078125 0 3.1875 0.890625q1.125 0.875 1.125 2.546875q0 2.140625 -1.71875 3.25q-1.703125 1.125 -4.984375 1.125q-2.515625 0 -3.890625 -0.9375q-1.359375 -0.9375 -1.359375 -2.640625q0 -1.171875 0.75 -2.03125q0.75 -0.859375 2.109375 -1.171875q-0.484375 -0.21875 -0.828125 -0.6875q-0.328125 -0.46875 -0.328125 -1.09375q0 -0.703125 0.375 -1.21875q0.375 -0.53125 1.1875 -1.03125q-1.0 -0.40625 -1.625 -1.390625q-0.625 -0.984375 -0.625 -2.25q0 -2.109375 1.265625 -3.25q1.265625 -1.140625 3.578125 -1.140625q1.015625 0 1.828125 0.234375l4.4375 0zm-10.25 15.0q0 1.046875 0.875 1.578125q0.890625 0.546875 2.53125 0.546875q2.453125 0 3.625 -0.734375q1.171875 -0.734375 1.171875 -1.984375q0 -1.046875 -0.640625 -1.453125q-0.640625 -0.40625 -2.421875 -0.40625l-2.328125 0q-1.328125 0 -2.078125 0.625q-0.734375 0.640625 -0.734375 1.828125zm1.0625 -10.890625q0 1.34375 0.75 2.046875q0.765625 0.6875 2.125 0.6875q2.859375 0 2.859375 -2.765625q0 -2.890625 -2.890625 -2.890625q-1.375 0 -2.109375 0.734375q-0.734375 0.734375 -0.734375 2.1875zm17.242188 8.96875q-2.84375 0 -4.5 -1.734375q-1.640625 -1.734375 -1.640625 -4.8125q0 -3.109375 1.53125 -4.9375q1.53125 -1.828125 4.109375 -1.828125q2.421875 0 3.828125 1.59375q1.40625 1.578125 1.40625 4.1875l0 1.21875l-8.859375 0q0.0625 2.265625 1.140625 3.4375q1.09375 1.171875 3.0625 1.171875q2.078125 0 4.09375 -0.859375l0 1.734375q-1.03125 0.4375 -1.953125 0.625q-0.90625 0.203125 -2.21875 0.203125zm-0.515625 -11.6875q-1.546875 0 -2.46875 1.015625q-0.921875 1.0 -1.09375 2.78125l6.71875 0q0 -1.84375 -0.828125 -2.8125q-0.8125 -0.984375 -2.328125 -0.984375zm24.527344 -1.65625q0 1.640625 -0.921875 2.6875q-0.921875 1.046875 -2.609375 1.390625l0 0.09375q2.0625 0.265625 3.046875 1.328125q1.0 1.046875 1.0 2.75q0 2.453125 -1.703125 3.78125q-1.6875 1.3125 -4.8125 1.3125q-1.359375 0 -2.5 -0.203125q-1.125 -0.203125 -2.1875 -0.71875l0 -1.859375q1.109375 0.546875 2.359375 0.84375q1.265625 0.28125 2.390625 0.28125q4.4375 0 4.4375 -3.484375q0 -3.109375 -4.890625 -3.109375l-1.6875 0l0 -1.671875l1.703125 0q2.015625 0 3.1875 -0.890625q1.171875 -0.890625 1.171875 -2.453125q0 -1.25 -0.875 -1.96875q-0.859375 -0.71875 -2.328125 -0.71875q-1.125 0 -2.125 0.3125q-1.0 0.296875 -2.265625 1.125l-0.984375 -1.3125q1.046875 -0.84375 2.421875 -1.3125q1.375 -0.46875 2.90625 -0.46875q2.5 0 3.875 1.140625q1.390625 1.140625 1.390625 3.125z" fill-rule="nonzero"></path><path fill="#000000" fill-opacity="0.0" d="m240.32545 74.50141l221.60631 0l0 129.13385l-221.60631 0z" fill-rule="nonzero"></path><path stroke="#666666" stroke-width="2.0" stroke-linejoin="round" stroke-linecap="butt" d="m240.32545 74.50141l221.60631 0l0 129.13385l-221.60631 0z" fill-rule="nonzero"></path><path fill="#000000" d="m327.16376 94.40079q0 2.59375 -1.78125 4.0q-1.765625 1.40625 -5.078125 1.40625l-2.015625 0l0 6.734375l-1.984375 0l0 -17.140625l4.4375 0q6.421875 0 6.421875 5.0zm-8.875 3.6875l1.796875 0q2.65625 0 3.828125 -0.84375q1.1875 -0.859375 1.1875 -2.75q0 -1.703125 -1.109375 -2.53125q-1.109375 -0.828125 -3.46875 -0.828125l-2.234375 0l0 6.953125zm20.074219 8.453125l-0.390625 -1.828125l-0.09375 0q-0.96875 1.203125 -1.921875 1.640625q-0.953125 0.421875 -2.375 0.421875q-1.921875 0 -3.0 -0.984375q-1.078125 -0.984375 -1.078125 -2.796875q0 -3.890625 6.21875 -4.078125l2.171875 -0.078125l0 -0.796875q0 -1.515625 -0.65625 -2.234375q-0.640625 -0.71875 -2.0625 -0.71875q-1.609375 0 -3.640625 0.984375l-0.59375 -1.484375q0.953125 -0.515625 2.078125 -0.8125q1.125 -0.296875 2.265625 -0.296875q2.296875 0 3.40625 1.03125q1.109375 1.015625 1.109375 3.265625l0 8.765625l-1.4375 0zm-4.40625 -1.375q1.828125 0 2.859375 -0.984375q1.03125 -1.0 1.03125 -2.796875l0 -1.15625l-1.9375 0.078125q-2.328125 0.078125 -3.359375 0.71875q-1.015625 0.640625 -1.015625 1.984375q0 1.0625 0.640625 1.609375q0.640625 0.546875 1.78125 0.546875zm20.363281 -11.46875l0 1.234375l-2.375 0.28125q0.328125 0.40625 0.578125 1.078125q0.265625 0.65625 0.265625 1.484375q0 1.890625 -1.296875 3.015625q-1.28125 1.125 -3.53125 1.125q-0.578125 0 -1.078125 -0.09375q-1.25 0.65625 -1.25 1.640625q0 0.53125 0.4375 0.78125q0.4375 0.25 1.484375 0.25l2.28125 0q2.078125 0 3.1875 0.890625q1.125 0.875 1.125 2.546875q0 2.140625 -1.71875 3.25q-1.703125 1.125 -4.984375 1.125q-2.515625 0 -3.890625 -0.9375q-1.359375 -0.9375 -1.359375 -2.640625q0 -1.171875 0.75 -2.03125q0.75 -0.859375 2.109375 -1.171875q-0.484375 -0.21875 -0.828125 -0.6875q-0.328125 -0.46875 -0.328125 -1.09375q0 -0.703125 0.375 -1.21875q0.375 -0.53125 1.1875 -1.03125q-1.0 -0.40625 -1.625 -1.390625q-0.625 -0.984375 -0.625 -2.25q0 -2.109375 1.265625 -3.25q1.265625 -1.140625 3.578125 -1.140625q1.015625 0 1.828125 0.234375l4.4375 0zm-10.25 15.0q0 1.046875 0.875 1.578125q0.890625 0.546875 2.53125 0.546875q2.453125 0 3.625 -0.734375q1.171875 -0.734375 1.171875 -1.984375q0 -1.046875 -0.640625 -1.453125q-0.640625 -0.40625 -2.421875 -0.40625l-2.328125 0q-1.328125 0 -2.078125 0.625q-0.734375 0.640625 -0.734375 1.828125zm1.0625 -10.890625q0 1.34375 0.75 2.046875q0.765625 0.6875 2.125 0.6875q2.859375 0 2.859375 -2.765625q0 -2.890625 -2.890625 -2.890625q-1.375 0 -2.109375 0.734375q-0.734375 0.734375 -0.734375 2.1875zm17.242188 8.96875q-2.84375 0 -4.5 -1.734375q-1.640625 -1.734375 -1.640625 -4.8125q0 -3.109375 1.53125 -4.9375q1.53125 -1.828125 4.109375 -1.828125q2.421875 0 3.828125 1.59375q1.40625 1.578125 1.40625 4.1875l0 1.21875l-8.859375 0q0.0625 2.265625 1.140625 3.4375q1.09375 1.171875 3.0625 1.171875q2.078125 0 4.09375 -0.859375l0 1.734375q-1.03125 0.4375 -1.953125 0.625q-0.90625 0.203125 -2.21875 0.203125zm-0.515625 -11.6875q-1.546875 0 -2.46875 1.015625q-0.921875 1.0 -1.09375 2.78125l6.71875 0q0 -1.84375 -0.828125 -2.8125q-0.8125 -0.984375 -2.328125 -0.984375zm25.167969 11.453125l-11.265625 0l0 -1.671875l4.515625 -4.546875q2.0625 -2.078125 2.71875 -2.96875q0.65625 -0.890625 0.984375 -1.734375q0.328125 -0.84375 0.328125 -1.8125q0 -1.375 -0.84375 -2.171875q-0.828125 -0.8125 -2.296875 -0.8125q-1.0625 0 -2.03125 0.359375q-0.953125 0.34375 -2.125 1.265625l-1.03125 -1.3125q2.375 -1.96875 5.15625 -1.96875q2.421875 0 3.78125 1.234375q1.375 1.234375 1.375 3.3125q0 1.640625 -0.921875 3.234375q-0.90625 1.59375 -3.40625 4.03125l-3.75 3.65625l0 0.09375l8.8125 0l0 1.8125z" fill-rule="nonzero"></path><path fill="#000000" fill-opacity="0.0" d="m14.396325 74.50141l221.6063 0l0 129.13385l-221.6063 0z" fill-rule="nonzero"></path><path stroke="#666666" stroke-width="2.0" stroke-linejoin="round" stroke-linecap="butt" d="m14.396325 74.50141l221.6063 0l0 129.13385l-221.6063 0z" fill-rule="nonzero"></path><path fill="#000000" d="m101.23463 94.40079q0 2.59375 -1.78125 4.0q-1.765625 1.40625 -5.078125 1.40625l-2.015625 0l0 6.734375l-1.984375 0l0 -17.140625l4.4375 0q6.421875 0 6.421875 5.0zm-8.875 3.6875l1.796875 0q2.65625 0 3.828125 -0.84375q1.1875 -0.859375 1.1875 -2.75q0 -1.703125 -1.109375 -2.53125q-1.109375 -0.828125 -3.46875 -0.828125l-2.234375 0l0 6.953125zm20.074219 8.453125l-0.390625 -1.828125l-0.09375 0q-0.96875 1.203125 -1.921875 1.640625q-0.953125 0.421875 -2.375 0.421875q-1.921875 0 -3.0 -0.984375q-1.078125 -0.984375 -1.078125 -2.796875q0 -3.890625 6.21875 -4.078125l2.171875 -0.078125l0 -0.796875q0 -1.515625 -0.65625 -2.234375q-0.640625 -0.71875 -2.0625 -0.71875q-1.609375 0 -3.640625 0.984375l-0.59375 -1.484375q0.953125 -0.515625 2.078125 -0.8125q1.125 -0.296875 2.265625 -0.296875q2.296875 0 3.40625 1.03125q1.109375 1.015625 1.109375 3.265625l0 8.765625l-1.4375 0zm-4.40625 -1.375q1.828125 0 2.859375 -0.984375q1.03125 -1.0 1.03125 -2.796875l0 -1.15625l-1.9375 0.078125q-2.328125 0.078125 -3.359375 0.71875q-1.015625 0.640625 -1.015625 1.984375q0 1.0625 0.640625 1.609375q0.640625 0.546875 1.78125 0.546875zm20.363289 -11.46875l0 1.234375l-2.3750076 0.28125q0.328125 0.40625 0.578125 1.078125q0.265625 0.65625 0.265625 1.484375q0 1.890625 -1.296875 3.015625q-1.28125 1.125 -3.53125 1.125q-0.578125 0 -1.078125 -0.09375q-1.25 0.65625 -1.25 1.640625q0 0.53125 0.4375 0.78125q0.4375 0.25 1.484375 0.25l2.28125 0q2.078125 0 3.1875 0.890625q1.1250076 0.875 1.1250076 2.546875q0 2.140625 -1.7187576 3.25q-1.703125 1.125 -4.984375 1.125q-2.515625 0 -3.890625 -0.9375q-1.359375 -0.9375 -1.359375 -2.640625q0 -1.171875 0.75 -2.03125q0.75 -0.859375 2.109375 -1.171875q-0.484375 -0.21875 -0.828125 -0.6875q-0.328125 -0.46875 -0.328125 -1.09375q0 -0.703125 0.375 -1.21875q0.375 -0.53125 1.1875 -1.03125q-1.0 -0.40625 -1.625 -1.390625q-0.625 -0.984375 -0.625 -2.25q0 -2.109375 1.265625 -3.25q1.265625 -1.140625 3.578125 -1.140625q1.015625 0 1.828125 0.234375l4.4375076 0zm-10.250008 15.0q0 1.046875 0.875 1.578125q0.890625 0.546875 2.53125 0.546875q2.453125 0 3.625 -0.734375q1.171875 -0.734375 1.171875 -1.984375q0 -1.046875 -0.640625 -1.453125q-0.640625 -0.40625 -2.421875 -0.40625l-2.328125 0q-1.328125 0 -2.078125 0.625q-0.734375 0.640625 -0.734375 1.828125zm1.0625 -10.890625q0 1.34375 0.75 2.046875q0.765625 0.6875 2.125 0.6875q2.859375 0 2.859375 -2.765625q0 -2.890625 -2.890625 -2.890625q-1.375 0 -2.109375 0.734375q-0.734375 0.734375 -0.734375 2.1875zm17.242195 8.96875q-2.84375 0 -4.5 -1.734375q-1.640625 -1.734375 -1.640625 -4.8125q0 -3.109375 1.53125 -4.9375q1.53125 -1.828125 4.109375 -1.828125q2.421875 0 3.828125 1.59375q1.40625 1.578125 1.40625 4.1875l0 1.21875l-8.859375 0q0.0625 2.265625 1.140625 3.4375q1.09375 1.171875 3.0625 1.171875q2.078125 0 4.09375 -0.859375l0 1.734375q-1.03125 0.4375 -1.953125 0.625q-0.90625 0.203125 -2.21875 0.203125zm-0.515625 -11.6875q-1.546875 0 -2.46875 1.015625q-0.921875 1.0 -1.09375 2.78125l6.71875 0q0 -1.84375 -0.828125 -2.8125q-0.8125 -0.984375 -2.328125 -0.984375zm21.105469 11.453125l-1.890625 0l0 -12.21875q0 -1.515625 0.09375 -2.875q-0.25 0.25 -0.5625 0.515625q-0.296875 0.265625 -2.78125 2.28125l-1.03125 -1.328125l4.53125 -3.515625l1.640625 0l0 17.140625z" fill-rule="nonzero"></path><path fill="#3b6790" d="m50.254593 134.0l25.732285 0l0 31.968506l-25.732285 0z" fill-rule="nonzero"></path><path stroke="#666666" stroke-width="2.0" stroke-linejoin="round" stroke-linecap="butt" d="m50.254593 134.0l25.732285 0l0 31.968506l-25.732285 0z" fill-rule="nonzero"></path><path fill="#000000" fill-opacity="0.0" d="m58.254593 182.64043l876.25195 2.740158" fill-rule="nonzero"></path><path stroke="#d89f39" stroke-width="16.0" stroke-linejoin="round" stroke-linecap="butt" d="m58.254593 182.64043l780.2525 2.4399567" fill-rule="evenodd"></path><path fill="#d89f39" stroke="#d89f39" stroke-width="16.0" stroke-linecap="butt" d="m838.4244 211.50797l72.69183 -26.200531l-72.52655 -26.654648z" fill-rule="evenodd"></path><path fill="#000000" fill-opacity="0.0" d="m828.18896 165.9685l139.81104 0l0 63.968506l-139.81104 0z" fill-rule="nonzero"></path><path fill="#000000" d="m842.11084 191.81038q0.40625 0 0.78125 -0.0625q0.390625 -0.0625 0.609375 -0.125l0 1.171875q-0.25 0.125 -0.75 0.203125q-0.484375 0.078125 -0.875 0.078125q-2.9375 0 -2.9375 -3.109375l0 -6.046875l-1.46875 0l0 -0.75l1.46875 -0.640625l0.640625 -2.171875l0.890625 0l0 2.359375l2.953125 0l0 1.203125l-2.953125 0l0 5.984375q0 0.921875 0.4375 1.421875q0.4375 0.484375 1.203125 0.484375zm4.8361816 1.078125l-1.53125 0l0 -10.171875l1.53125 0l0 10.171875zm-1.671875 -12.921875q0 -0.53125 0.25 -0.765625q0.265625 -0.25 0.65625 -0.25q0.375 0 0.640625 0.25q0.28125 0.25 0.28125 0.765625q0 0.515625 -0.28125 0.78125q-0.265625 0.25 -0.640625 0.25q-0.390625 0 -0.65625 -0.25q-0.25 -0.265625 -0.25 -0.78125zm17.812439 12.921875l0 -6.609375q0 -1.21875 -0.53125 -1.828125q-0.515625 -0.609375 -1.609375 -0.609375q-1.4375 0 -2.125 0.828125q-0.671875 0.828125 -0.671875 2.546875l0 5.671875l-1.546875 0l0 -6.609375q0 -1.21875 -0.53125 -1.828125q-0.515625 -0.609375 -1.609375 -0.609375q-1.453125 0 -2.125 0.875q-0.671875 0.859375 -0.671875 2.84375l0 5.328125l-1.53125 0l0 -10.171875l1.25 0l0.25 1.390625l0.0625 0q0.4375 -0.734375 1.234375 -1.15625q0.796875 -0.421875 1.78125 -0.421875q2.375 0 3.109375 1.734375l0.078125 0q0.453125 -0.796875 1.3125 -1.265625q0.875 -0.46875 1.96875 -0.46875q1.734375 0 2.59375 0.890625q0.859375 0.890625 0.859375 2.828125l0 6.640625l-1.546875 0zm8.681763 0.1875q-2.25 0 -3.5625 -1.375q-1.296875 -1.375 -1.296875 -3.8125q0 -2.453125 1.203125 -3.90625q1.21875 -1.453125 3.265625 -1.453125q1.90625 0 3.015625 1.265625q1.125 1.25 1.125 3.3125l0 0.96875l-7.015625 0q0.046875 1.796875 0.90625 2.734375q0.859375 0.921875 2.421875 0.921875q1.640625 0 3.25 -0.6875l0 1.375q-0.8125 0.34375 -1.546875 0.5q-0.734375 0.15625 -1.765625 0.15625zm-0.40625 -9.25q-1.234375 0 -1.96875 0.796875q-0.71875 0.796875 -0.84375 2.203125l5.3125 0q0 -1.453125 -0.65625 -2.21875q-0.640625 -0.78125 -1.84375 -0.78125z" fill-rule="nonzero"></path><path fill="#3b6790" d="m82.25459 134.0l25.732285 0l0 31.968506l-25.732285 0z" fill-rule="nonzero"></path><path stroke="#666666" stroke-width="2.0" stroke-linejoin="round" stroke-linecap="butt" d="m82.25459 134.0l25.732285 0l0 31.968506l-25.732285 0z" fill-rule="nonzero"></path><path fill="#3b6790" d="m114.25459 134.0l25.732285 0l0 31.968506l-25.732285 0z" fill-rule="nonzero"></path><path stroke="#666666" stroke-width="2.0" stroke-linejoin="round" stroke-linecap="butt" d="m114.25459 134.0l25.732285 0l0 31.968506l-25.732285 0z" fill-rule="nonzero"></path><path fill="#3b6790" d="m146.2546 134.0l25.732285 0l0 31.968506l-25.732285 0z" fill-rule="nonzero"></path><path stroke="#666666" stroke-width="2.0" stroke-linejoin="round" stroke-linecap="butt" d="m146.2546 134.0l25.732285 0l0 31.968506l-25.732285 0z" fill-rule="nonzero"></path><path fill="#3b6790" d="m178.2546 134.0l25.732285 0l0 31.968506l-25.732285 0z" fill-rule="nonzero"></path><path stroke="#666666" stroke-width="2.0" stroke-linejoin="round" stroke-linecap="butt" d="m178.2546 134.0l25.732285 0l0 31.968506l-25.732285 0z" fill-rule="nonzero"></path><path fill="#3b6790" d="m210.2546 134.0l25.732285 0l0 31.968506l-25.732285 0z" fill-rule="nonzero"></path><path stroke="#666666" stroke-width="2.0" stroke-linejoin="round" stroke-linecap="butt" d="m210.2546 134.0l25.732285 0l0 31.968506l-25.732285 0z" fill-rule="nonzero"></path><path fill="#3b6790" d="m242.2546 134.0l25.732285 0l0 31.968506l-25.732285 0z" fill-rule="nonzero"></path><path stroke="#666666" stroke-width="2.0" stroke-linejoin="round" stroke-linecap="butt" d="m242.2546 134.0l25.732285 0l0 31.968506l-25.732285 0z" fill-rule="nonzero"></path><path fill="#3b6790" d="m274.2546 134.0l25.73227 0l0 31.968506l-25.73227 0z" fill-rule="nonzero"></path><path stroke="#666666" stroke-width="2.0" stroke-linejoin="round" stroke-linecap="butt" d="m274.2546 134.0l25.73227 0l0 31.968506l-25.73227 0z" fill-rule="nonzero"></path><path fill="#3b6790" d="m306.2546 134.0l25.73227 0l0 31.968506l-25.73227 0z" fill-rule="nonzero"></path><path stroke="#666666" stroke-width="2.0" stroke-linejoin="round" stroke-linecap="butt" d="m306.2546 134.0l25.73227 0l0 31.968506l-25.73227 0z" fill-rule="nonzero"></path><path fill="#3b6790" d="m338.2546 134.0l25.73227 0l0 31.968506l-25.73227 0z" fill-rule="nonzero"></path><path stroke="#666666" stroke-width="2.0" stroke-linejoin="round" stroke-linecap="butt" d="m338.2546 134.0l25.73227 0l0 31.968506l-25.73227 0z" fill-rule="nonzero"></path><path fill="#3b6790" d="m370.2546 134.0l25.73227 0l0 31.968506l-25.73227 0z" fill-rule="nonzero"></path><path stroke="#666666" stroke-width="2.0" stroke-linejoin="round" stroke-linecap="butt" d="m370.2546 134.0l25.73227 0l0 31.968506l-25.73227 0z" fill-rule="nonzero"></path><path fill="#3b6790" d="m402.2546 134.0l25.73227 0l0 31.968506l-25.73227 0z" fill-rule="nonzero"></path><path stroke="#666666" stroke-width="2.0" stroke-linejoin="round" stroke-linecap="butt" d="m402.2546 134.0l25.73227 0l0 31.968506l-25.73227 0z" fill-rule="nonzero"></path><path fill="#3b6790" d="m434.2546 134.0l25.73227 0l0 31.968506l-25.73227 0z" fill-rule="nonzero"></path><path stroke="#666666" stroke-width="2.0" stroke-linejoin="round" stroke-linecap="butt" d="m434.2546 134.0l25.73227 0l0 31.968506l-25.73227 0z" fill-rule="nonzero"></path><path fill="#3b6790" d="m466.2546 134.0l25.73227 0l0 31.968506l-25.73227 0z" fill-rule="nonzero"></path><path stroke="#666666" stroke-width="2.0" stroke-linejoin="round" stroke-linecap="butt" d="m466.2546 134.0l25.73227 0l0 31.968506l-25.73227 0z" fill-rule="nonzero"></path><path fill="#3b6790" d="m498.2546 134.0l25.73227 0l0 31.968506l-25.73227 0z" fill-rule="nonzero"></path><path stroke="#666666" stroke-width="2.0" stroke-linejoin="round" stroke-linecap="butt" d="m498.2546 134.0l25.73227 0l0 31.968506l-25.73227 0z" fill-rule="nonzero"></path><path fill="#3b6790" d="m530.2546 134.0l25.7323 0l0 31.968506l-25.7323 0z" fill-rule="nonzero"></path><path stroke="#666666" stroke-width="2.0" stroke-linejoin="round" stroke-linecap="butt" d="m530.2546 134.0l25.7323 0l0 31.968506l-25.7323 0z" fill-rule="nonzero"></path><path fill="#3b6790" d="m562.2546 134.0l25.7323 0l0 31.968506l-25.7323 0z" fill-rule="nonzero"></path><path stroke="#666666" stroke-width="2.0" stroke-linejoin="round" stroke-linecap="butt" d="m562.2546 134.0l25.7323 0l0 31.968506l-25.7323 0z" fill-rule="nonzero"></path><path fill="#3b6790" d="m594.2546 134.0l25.7323 0l0 31.968506l-25.7323 0z" fill-rule="nonzero"></path><path stroke="#666666" stroke-width="2.0" stroke-linejoin="round" stroke-linecap="butt" d="m594.2546 134.0l25.7323 0l0 31.968506l-25.7323 0z" fill-rule="nonzero"></path><path fill="#3b6790" d="m626.2546 134.0l25.7323 0l0 31.968506l-25.7323 0z" fill-rule="nonzero"></path><path stroke="#666666" stroke-width="2.0" stroke-linejoin="round" stroke-linecap="butt" d="m626.2546 134.0l25.7323 0l0 31.968506l-25.7323 0z" fill-rule="nonzero"></path><path fill="#3b6790" d="m658.2546 134.0l25.7323 0l0 31.968506l-25.7323 0z" fill-rule="nonzero"></path><path stroke="#666666" stroke-width="2.0" stroke-linejoin="round" stroke-linecap="butt" d="m658.2546 134.0l25.7323 0l0 31.968506l-25.7323 0z" fill-rule="nonzero"></path><path fill="#3b6790" d="m690.2546 134.0l25.7323 0l0 31.968506l-25.7323 0z" fill-rule="nonzero"></path><path stroke="#666666" stroke-width="2.0" stroke-linejoin="round" stroke-linecap="butt" d="m690.2546 134.0l25.7323 0l0 31.968506l-25.7323 0z" fill-rule="nonzero"></path><path fill="#3b6790" d="m722.2546 134.0l25.7323 0l0 31.968506l-25.7323 0z" fill-rule="nonzero"></path><path stroke="#666666" stroke-width="2.0" stroke-linejoin="round" stroke-linecap="butt" d="m722.2546 134.0l25.7323 0l0 31.968506l-25.7323 0z" fill-rule="nonzero"></path><path fill="#3b6790" d="m754.2546 134.0l25.7323 0l0 31.968506l-25.7323 0z" fill-rule="nonzero"></path><path stroke="#666666" stroke-width="2.0" stroke-linejoin="round" stroke-linecap="butt" d="m754.2546 134.0l25.7323 0l0 31.968506l-25.7323 0z" fill-rule="nonzero"></path><path fill="#3b6790" d="m786.2546 134.0l25.7323 0l0 31.968506l-25.7323 0z" fill-rule="nonzero"></path><path stroke="#666666" stroke-width="2.0" stroke-linejoin="round" stroke-linecap="butt" d="m786.2546 134.0l25.7323 0l0 31.968506l-25.7323 0z" fill-rule="nonzero"></path><path fill="#3b6790" d="m18.254593 134.0l25.732285 0l0 31.968506l-25.732285 0z" fill-rule="nonzero"></path><path stroke="#666666" stroke-width="2.0" stroke-linejoin="round" stroke-linecap="butt" d="m18.254593 134.0l25.732285 0l0 31.968506l-25.732285 0z" fill-rule="nonzero"></path><path fill="#000000" fill-opacity="0.0" d="m125.19947 203.63527l0 38.866043l225.92126 0l0 -38.803055" fill-rule="nonzero"></path><path stroke="#000000" stroke-width="4.0" stroke-linejoin="round" stroke-linecap="butt" d="m125.19948 203.63527l0 38.866043l225.92125 0l0 -14.80304" fill-rule="evenodd"></path><path fill="#000000" stroke="#000000" stroke-width="4.0" stroke-linecap="butt" d="m357.72766 227.69826l-6.6069336 -18.15239l-6.6069336 18.15239z" fill-rule="evenodd"></path><path fill="#000000" fill-opacity="0.0" d="m351.1286 74.50141l0 -32.619522l224.0 0l0 32.682518" fill-rule="nonzero"></path><path stroke="#000000" stroke-width="4.0" stroke-linejoin="round" stroke-linecap="butt" d="m351.1286 74.50141l0 -32.619522l224.0 0l0 8.682518" fill-rule="evenodd"></path><path fill="#000000" stroke="#000000" stroke-width="4.0" stroke-linecap="butt" d="m568.52167 50.564407l6.6069336 18.15239l6.6069336 -18.15239z" fill-rule="evenodd"></path><path fill="#000000" fill-opacity="0.0" d="m187.51443 243.85826l182.74017 0l0 31.05513l-182.74017 0z" fill-rule="nonzero"></path><path fill="#000000" d="m205.10818 270.77826l0 -6.578125q0 -1.25 -0.578125 -1.859375q-0.5625 -0.609375 -1.765625 -0.609375q-1.59375 0 -2.34375 0.875q-0.734375 0.859375 -0.734375 2.84375l0 5.328125l-1.53125 0l0 -10.171875l1.25 0l0.25 1.390625l0.0625 0q0.484375 -0.75 1.328125 -1.15625q0.859375 -0.421875 1.90625 -0.421875q1.84375 0 2.765625 0.890625q0.921875 0.890625 0.921875 2.828125l0 6.640625l-1.53125 0zm8.778763 0.1875q-2.25 0 -3.5625 -1.375q-1.296875 -1.375 -1.296875 -3.8125q0 -2.453125 1.203125 -3.90625q1.21875 -1.453125 3.265625 -1.453125q1.90625 0 3.015625 1.265625q1.125 1.25 1.125 3.3125l0 0.96875l-7.015625 0q0.046875 1.796875 0.90625 2.734375q0.859375 0.921875 2.421875 0.921875q1.640625 0 3.25 -0.6875l0 1.375q-0.8125 0.34375 -1.546875 0.5q-0.734375 0.15625 -1.765625 0.15625zm-0.40625 -9.25q-1.234375 0 -1.96875 0.796875q-0.71875 0.796875 -0.84375 2.203125l5.3125 0q0 -1.453125 -0.65625 -2.21875q-0.640625 -0.78125 -1.84375 -0.78125zm9.029312 3.859375l-3.53125 -4.96875l1.75 0l2.6875 3.90625l2.671875 -3.90625l1.734375 0l-3.53125 4.96875l3.71875 5.203125l-1.75 0l-2.84375 -4.125l-2.875 4.125l-1.75 0l3.71875 -5.203125zm10.61824 4.125q0.40625 0 0.78125 -0.0625q0.390625 -0.0625 0.609375 -0.125l0 1.171875q-0.25 0.125 -0.75 0.203125q-0.484375 0.078125 -0.875 0.078125q-2.9375 0 -2.9375 -3.109375l0 -6.046875l-1.46875 0l0 -0.75l1.46875 -0.640625l0.640625 -2.171875l0.890625 0l0 2.359375l2.953125 0l0 1.203125l-2.953125 0l0 5.984375q0 0.921875 0.4375 1.421875q0.4375 0.484375 1.203125 0.484375zm12.133041 -8.53125q0 2.0625 -1.40625 3.171875q-1.40625 1.109375 -4.03125 1.109375l-1.59375 0l0 5.328125l-1.578125 0l0 -13.5625l3.515625 0q5.09375 0 5.09375 3.953125zm-7.03125 2.921875l1.421875 0q2.09375 0 3.03125 -0.671875q0.9375 -0.6875 0.9375 -2.171875q0 -1.34375 -0.890625 -2.0q-0.875 -0.671875 -2.734375 -0.671875l-1.765625 0l0 5.515625zm15.685135 6.6875l-0.3125 -1.453125l-0.078125 0q-0.75 0.96875 -1.515625 1.3125q-0.75 0.328125 -1.890625 0.328125q-1.5 0 -2.359375 -0.78125q-0.859375 -0.78125 -0.859375 -2.21875q0 -3.078125 4.921875 -3.234375l1.734375 -0.046875l0 -0.625q0 -1.203125 -0.515625 -1.765625q-0.515625 -0.578125 -1.65625 -0.578125q-1.265625 0 -2.875 0.78125l-0.46875 -1.1875q0.75 -0.40625 1.640625 -0.625q0.90625 -0.234375 1.796875 -0.234375q1.828125 0 2.703125 0.8125q0.875 0.796875 0.875 2.578125l0 6.9375l-1.140625 0zm-3.484375 -1.078125q1.4375 0 2.25 -0.78125q0.828125 -0.796875 0.828125 -2.21875l0 -0.921875l-1.53125 0.0625q-1.84375 0.0625 -2.65625 0.578125q-0.8125 0.5 -0.8125 1.5625q0 0.84375 0.5 1.28125q0.515625 0.4375 1.421875 0.4375zm15.922592 -9.09375l0 0.984375l-1.875 0.21875q0.25 0.328125 0.453125 0.859375q0.203125 0.515625 0.203125 1.171875q0 1.484375 -1.015625 2.375q-1.015625 0.890625 -2.796875 0.890625q-0.453125 0 -0.859375 -0.0625q-0.984375 0.515625 -0.984375 1.296875q0 0.421875 0.34375 0.625q0.34375 0.203125 1.1875 0.203125l1.796875 0q1.640625 0 2.53125 0.703125q0.890625 0.6875 0.890625 2.015625q0 1.6875 -1.359375 2.5625q-1.359375 0.890625 -3.953125 0.890625q-1.984375 0 -3.078125 -0.75q-1.078125 -0.734375 -1.078125 -2.09375q0 -0.921875 0.59375 -1.609375q0.59375 -0.671875 1.671875 -0.90625q-0.390625 -0.171875 -0.65625 -0.546875q-0.265625 -0.375 -0.265625 -0.859375q0 -0.5625 0.296875 -0.96875q0.296875 -0.421875 0.9375 -0.8125q-0.78125 -0.328125 -1.28125 -1.109375q-0.5 -0.78125 -0.5 -1.78125q0 -1.671875 1.0 -2.578125q1.0 -0.90625 2.84375 -0.90625q0.796875 0 1.4375 0.1875l3.515625 0zm-8.109375 11.875q0 0.828125 0.6875 1.25q0.703125 0.4375 2.0 0.4375q1.9375 0 2.875 -0.578125q0.9375 -0.578125 0.9375 -1.578125q0 -0.828125 -0.515625 -1.15625q-0.515625 -0.3125 -1.921875 -0.3125l-1.84375 0q-1.046875 0 -1.640625 0.5q-0.578125 0.5 -0.578125 1.4375zm0.84375 -8.609375q0 1.0625 0.59375 1.609375q0.609375 0.546875 1.6875 0.546875q2.25 0 2.25 -2.1875q0 -2.296875 -2.28125 -2.296875q-1.09375 0 -1.671875 0.59375q-0.578125 0.578125 -0.578125 1.734375zm13.455231 7.09375q-2.25 0 -3.5625 -1.375q-1.296875 -1.375 -1.296875 -3.8125q0 -2.453125 1.203125 -3.90625q1.21875 -1.453125 3.265625 -1.453125q1.90625 0 3.015625 1.265625q1.125 1.25 1.125 3.3125l0 0.96875l-7.015625 0q0.046875 1.796875 0.90625 2.734375q0.859375 0.921875 2.421875 0.921875q1.640625 0 3.25 -0.6875l0 1.375q-0.8125 0.34375 -1.546875 0.5q-0.734375 0.15625 -1.765625 0.15625zm-0.40625 -9.25q-1.234375 0 -1.96875 0.796875q-0.71875 0.796875 -0.84375 2.203125l5.3125 0q0 -1.453125 -0.65625 -2.21875q-0.640625 -0.78125 -1.84375 -0.78125z" fill-rule="nonzero"></path><path fill="#000000" fill-opacity="0.0" d="m411.51443 4.9343834l182.74014 0l0 35.68504l-182.74014 0z" fill-rule="nonzero"></path><path fill="#000000" d="m429.1082 31.854382l0 -6.578125q0 -1.25 -0.578125 -1.859375q-0.5625 -0.609375 -1.765625 -0.609375q-1.59375 0 -2.34375 0.875q-0.734375 0.859375 -0.734375 2.84375l0 5.328125l-1.53125 0l0 -10.171875l1.25 0l0.25 1.390625l0.0625 0q0.484375 -0.75 1.328125 -1.15625q0.859375 -0.421875 1.90625 -0.421875q1.84375 0 2.765625 0.890625q0.921875 0.890625 0.921875 2.828125l0 6.640625l-1.53125 0zm8.778778 0.1875q-2.25 0 -3.5625 -1.375q-1.296875 -1.375 -1.296875 -3.8125q0 -2.453125 1.203125 -3.90625q1.21875 -1.453125 3.265625 -1.453125q1.90625 0 3.015625 1.265625q1.125 1.25 1.125 3.3125l0 0.96875l-7.015625 0q0.046875 1.796875 0.90625 2.734375q0.859375 0.921875 2.421875 0.921875q1.640625 0 3.25 -0.6875l0 1.375q-0.8125 0.34375 -1.546875 0.5q-0.734375 0.15625 -1.765625 0.15625zm-0.40625 -9.25q-1.234375 0 -1.96875 0.796875q-0.71875 0.796875 -0.84375 2.203125l5.3125 0q0 -1.453125 -0.65625 -2.21875q-0.640625 -0.78125 -1.84375 -0.78125zm9.029297 3.859375l-3.53125 -4.96875l1.75 0l2.6875 3.90625l2.671875 -3.90625l1.734375 0l-3.53125 4.96875l3.71875 5.203125l-1.75 0l-2.84375 -4.125l-2.875 4.125l-1.75 0l3.71875 -5.203125zm10.618256 4.125q0.40625 0 0.78125 -0.0625q0.390625 -0.0625 0.609375 -0.125l0 1.171875q-0.25 0.125 -0.75 0.203125q-0.484375 0.078125 -0.875 0.078125q-2.9375 0 -2.9375 -3.109375l0 -6.046875l-1.46875 0l0 -0.75l1.46875 -0.640625l0.640625 -2.171875l0.890625 0l0 2.359375l2.953125 0l0 1.203125l-2.953125 0l0 5.984375q0 0.921875 0.4375 1.421875q0.4375 0.484375 1.203125 0.484375zm12.133026 -8.53125q0 2.0625 -1.40625 3.171875q-1.40625 1.109375 -4.03125 1.109375l-1.59375 0l0 5.328125l-1.578125 0l0 -13.5625l3.515625 0q5.09375 0 5.09375 3.953125zm-7.03125 2.921875l1.421875 0q2.09375 0 3.03125 -0.671875q0.9375 -0.6875 0.9375 -2.171875q0 -1.34375 -0.890625 -2.0q-0.875 -0.671875 -2.734375 -0.671875l-1.765625 0l0 5.515625zm15.68515 6.6875l-0.3125 -1.453125l-0.078125 0q-0.75 0.96875 -1.515625 1.3125q-0.75 0.328125 -1.890625 0.328125q-1.5 0 -2.359375 -0.78125q-0.859375 -0.78125 -0.859375 -2.21875q0 -3.078125 4.921875 -3.234375l1.734375 -0.046875l0 -0.625q0 -1.203125 -0.515625 -1.765625q-0.515625 -0.578125 -1.65625 -0.578125q-1.265625 0 -2.875 0.78125l-0.46875 -1.1875q0.75 -0.40625 1.640625 -0.625q0.90625 -0.234375 1.796875 -0.234375q1.828125 0 2.703125 0.8125q0.875 0.796875 0.875 2.578125l0 6.9375l-1.140625 0zm-3.484375 -1.078125q1.4375 0 2.25 -0.78125q0.828125 -0.796875 0.828125 -2.21875l0 -0.921875l-1.53125 0.0625q-1.84375 0.0625 -2.65625 0.578125q-0.8125 0.5 -0.8125 1.5625q0 0.84375 0.5 1.28125q0.515625 0.4375 1.421875 0.4375zm15.922577 -9.09375l0 0.984375l-1.875 0.21875q0.25 0.328125 0.453125 0.859375q0.203125 0.515625 0.203125 1.171875q0 1.484375 -1.015625 2.375q-1.015625 0.890625 -2.796875 0.890625q-0.453125 0 -0.859375 -0.0625q-0.984375 0.515625 -0.984375 1.296875q0 0.421875 0.34375 0.625q0.34375 0.203125 1.1875 0.203125l1.796875 0q1.640625 0 2.53125 0.703125q0.890625 0.6875 0.890625 2.015625q0 1.6875 -1.359375 2.5625q-1.359375 0.890625 -3.953125 0.890625q-1.984375 0 -3.078125 -0.75q-1.078125 -0.734375 -1.078125 -2.09375q0 -0.921875 0.59375 -1.609375q0.59375 -0.671875 1.671875 -0.90625q-0.390625 -0.171875 -0.65625 -0.546875q-0.265625 -0.375 -0.265625 -0.859375q0 -0.5625 0.296875 -0.96875q0.296875 -0.421875 0.9375 -0.8125q-0.78125 -0.328125 -1.28125 -1.109375q-0.5 -0.78125 -0.5 -1.78125q0 -1.671875 1.0 -2.578125q1.0 -0.90625 2.84375 -0.90625q0.796875 0 1.4375 0.1875l3.515625 0zm-8.109375 11.875q0 0.828125 0.6875 1.25q0.703125 0.4375 2.0 0.4375q1.9375 0 2.875 -0.578125q0.9375 -0.578125 0.9375 -1.578125q0 -0.828125 -0.515625 -1.15625q-0.515625 -0.3125 -1.921875 -0.3125l-1.84375 0q-1.046875 0 -1.640625 0.5q-0.578125 0.5 -0.578125 1.4375zm0.84375 -8.609375q0 1.0625 0.59375 1.609375q0.609375 0.546875 1.6875 0.546875q2.25 0 2.25 -2.1875q0 -2.296875 -2.28125 -2.296875q-1.09375 0 -1.671875 0.59375q-0.578125 0.578125 -0.578125 1.734375zm13.455231 7.09375q-2.25 0 -3.5625 -1.375q-1.296875 -1.375 -1.296875 -3.8125q0 -2.453125 1.203125 -3.90625q1.21875 -1.453125 3.265625 -1.453125q1.90625 0 3.015625 1.265625q1.125 1.25 1.125 3.3125l0 0.96875l-7.015625 0q0.046875 1.796875 0.90625 2.734375q0.859375 0.921875 2.421875 0.921875q1.640625 0 3.25 -0.6875l0 1.375q-0.8125 0.34375 -1.546875 0.5q-0.734375 0.15625 -1.765625 0.15625zm-0.40625 -9.25q-1.234375 0 -1.96875 0.796875q-0.71875 0.796875 -0.84375 2.203125l5.3125 0q0 -1.453125 -0.65625 -2.21875q-0.640625 -0.78125 -1.84375 -0.78125z" fill-rule="nonzero"></path><path fill="#8bab42" d="m50.254593 134.0l25.732285 0l0 31.968506l-25.732285 0z" fill-rule="nonzero"></path><path stroke="#666666" stroke-width="2.0" stroke-linejoin="round" stroke-linecap="butt" d="m50.254593 134.0l25.732285 0l0 31.968506l-25.732285 0z" fill-rule="nonzero"></path><path fill="#8bab42" d="m690.2546 134.0l25.7323 0l0 31.968506l-25.7323 0z" fill-rule="nonzero"></path><path stroke="#666666" stroke-width="2.0" stroke-linejoin="round" stroke-linecap="butt" d="m690.2546 134.0l25.7323 0l0 31.968506l-25.7323 0z" fill-rule="nonzero"></path><path fill="#000000" fill-opacity="0.0" d="m63.120735 134.0l0 -25.0l95.99999 0l0 25.062988" fill-rule="nonzero"></path><path stroke="#000000" stroke-width="2.0" stroke-linejoin="round" stroke-linecap="butt" d="m63.120735 134.0l0 -25.0l95.99999 0l0 13.062996" fill-rule="evenodd"></path><path fill="#000000" stroke="#000000" stroke-width="2.0" stroke-linecap="butt" d="m155.81728 122.062996l3.3034515 9.076195l3.3034668 -9.076195z" fill-rule="evenodd"></path><path fill="#000000" fill-opacity="0.0" d="m255.12073 134.0l0 -25.0l96.0 0l0 25.062988" fill-rule="nonzero"></path><path stroke="#000000" stroke-width="2.0" stroke-linejoin="round" stroke-linecap="butt" d="m255.12073 134.0l0 -25.0l96.0 0l0 13.062996" fill-rule="evenodd"></path><path fill="#000000" stroke="#000000" stroke-width="2.0" stroke-linecap="butt" d="m347.81726 122.062996l3.3034668 9.076195l3.3034668 -9.076195z" fill-rule="evenodd"></path><path fill="#000000" fill-opacity="0.0" d="m383.12073 134.0l0 -25.0l320.0 0l0 25.062988" fill-rule="nonzero"></path><path stroke="#000000" stroke-width="2.0" stroke-linejoin="round" stroke-linecap="butt" d="m383.12073 134.0l0 -25.0l320.0 0l0 13.062996" fill-rule="evenodd"></path><path fill="#000000" stroke="#000000" stroke-width="2.0" stroke-linecap="butt" d="m699.81726 122.062996l3.3034668 9.076195l3.3034668 -9.076195z" fill-rule="evenodd"></path><path fill="#000000" fill-opacity="0.0" d="m159.12073 165.9685l0 25.0l96.0 0l0 -24.937012" fill-rule="nonzero"></path><path stroke="#000000" stroke-width="2.0" stroke-linejoin="round" stroke-linecap="butt" d="m159.12073 165.9685l0 25.0l96.0 0l0 -12.937012" fill-rule="evenodd"></path><path fill="#000000" stroke="#000000" stroke-width="2.0" stroke-linecap="butt" d="m258.4242 178.0315l-3.3034668 -9.076187l-3.3034515 9.076187z" fill-rule="evenodd"></path><path fill="#000000" fill-opacity="0.0" d="m351.12073 165.9685l0 25.0l32.0 0l0 -24.937012" fill-rule="nonzero"></path><path stroke="#000000" stroke-width="2.0" stroke-linejoin="round" stroke-linecap="butt" d="m351.12073 165.9685l0 25.0l32.0 0l0 -12.937012" fill-rule="evenodd"></path><path fill="#000000" stroke="#000000" stroke-width="2.0" stroke-linecap="butt" d="m386.4242 178.0315l-3.3034668 -9.076187l-3.3034668 9.076187z" fill-rule="evenodd"></path></g></svg>

