<?xml version="1.0" encoding="UTF-8" standalone="no"?>
<!-- Created with Inkscape (http://www.inkscape.org/) -->

<svg
   xmlns:dc="http://purl.org/dc/elements/1.1/"
   xmlns:cc="http://creativecommons.org/ns#"
   xmlns:rdf="http://www.w3.org/1999/02/22-rdf-syntax-ns#"
   xmlns:svg="http://www.w3.org/2000/svg"
   xmlns="http://www.w3.org/2000/svg"
   xmlns:sodipodi="http://sodipodi.sourceforge.net/DTD/sodipodi-0.dtd"
   xmlns:inkscape="http://www.inkscape.org/namespaces/inkscape"
   id="svg4190"
   version="1.1"
   inkscape:version="0.91 r13725"
   width="430.46158"
   height="204.92188"
   viewBox="0 0 430.46158 204.92188"
   sodipodi:docname="logo.svg">
  <title
     id="title4157">Linked Connections Logo</title>
  <metadata
     id="metadata4196">
    <rdf:RDF>
      <cc:Work
         rdf:about="">
        <dc:format>image/svg+xml</dc:format>
        <dc:type
           rdf:resource="http://purl.org/dc/dcmitype/StillImage" />
        <dc:title>Linked Connections Logo</dc:title>
        <dc:date>2015-08-18</dc:date>
        <dc:creator>
          <cc:Agent>
            <dc:title>http://pieter.pm/#me</dc:title>
          </cc:Agent>
        </dc:creator>
        <dc:publisher>
          <cc:Agent>
            <dc:title>http://pieter.pm/#me</dc:title>
          </cc:Agent>
        </dc:publisher>
      </cc:Work>
    </rdf:RDF>
  </metadata>
  <defs
     id="defs4194" />
  <sodipodi:namedview
     pagecolor="#ffffff"
     bordercolor="#666666"
     borderopacity="1"
     objecttolerance="10"
     gridtolerance="10"
     guidetolerance="10"
     inkscape:pageopacity="0"
     inkscape:pageshadow="2"
     inkscape:window-width="1505"
     inkscape:window-height="825"
     id="namedview4192"
     showgrid="false"
     inkscape:zoom="0.295"
     inkscape:cx="196.78814"
     inkscape:cy="361.09441"
     inkscape:window-x="0"
     inkscape:window-y="27"
     inkscape:window-maximized="0"
     inkscape:current-layer="svg4190"
     fit-margin-top="0"
     fit-margin-left="0"
     fit-margin-right="0"
     fit-margin-bottom="0" />
  <path
     style="fill:#3b6790"
     d="m 206.875,202.41305 c -17.51058,-4.64399 -25.95724,-9.14818 -35.6818,-19.02734 -9.38889,-9.53815 -16.20069,-21.71031 -21.35005,-38.15083 -3.00844,-9.60517 -3.37553,-12.5434 -4.39115,-35.14723 -1.75048,-38.959014 6.74671,-65.434784 27.79521,-86.605094 23.4831,-23.61898076 63.09408,-30.1335208 99.02628,-16.2861608 11.37266,4.3827408 12.95524,5.8702708 11.95099,11.2332108 -0.47673,2.54584 -1.67573,6.56679 -2.66443,8.93545 -0.9887,2.36868 -1.96967,5.18118 -2.17994,6.25 -0.21025,1.06884 -1.3343,4.31253 -2.49786,7.20822 l -2.11559,5.26487 -3.26483,-2.13921 c -15.15928,-9.93274 -45.16355,-11.88306 -60.49683,-3.9324 -9.94397,5.15619 -20.13933,21.41291 -23.97001,38.22071 -2.20895,9.69213 -2.70511,34.929234 -0.85661,43.571154 0.58821,2.75 1.69024,8.03795 2.44894,11.75101 0.75871,3.71305 1.87159,7.3693 2.47309,8.125 0.60149,0.75569 1.51233,2.78024 2.02408,4.49899 2.48737,8.35394 14.35317,18.59463 25.44655,21.96145 10.33388,3.13631 40.38235,1.27699 46.88025,-2.90084 1.68287,-1.082 9.98565,-4.06227 10.28502,-3.6918 0.61439,0.7603 7.87097,23.35515 8.58235,26.7229 0.93383,4.42083 -0.0614,5.13537 -14.31866,10.2809 -18.43914,6.65479 -46.1838,8.35004 -63.125,3.85704 z M 0,102.4334 0,3.6833952 l 19.375,0 19.375,0 0,82.5000008 0,82.500004 42.5,0 42.5,0 0,16.25 0,16.25 -61.875,0 -61.875,0 0,-98.75 z m 334.0625,77.98371 c -3.60938,-1.74623 -6.5625,-3.9757 -6.5625,-4.95435 0,-0.97865 -0.53618,-1.77936 -1.19151,-1.77936 -2.2873,0 -6.30872,-11.49034 -6.28967,-17.9714 0.0254,-8.63036 2.30353,-14.60095 7.58732,-19.88474 8.3756,-8.3756 21.5503,-10.82391 32.60272,-6.05872 8.94689,3.85739 16.04114,12.96726 16.04114,20.59873 0,2.08487 1.87451,0.76545 9.0625,-6.37877 l 9.0625,-9.00733 -0.41916,8.10112 c -0.39124,7.56155 -0.24199,8.10111 2.24087,8.10111 4.56819,0 15.73143,-9.35547 20.44927,-17.13774 18.22415,-30.06149 0.95173,-68.507214 -32.47722,-72.289274 l -7.587,-0.85837 -0.87493,4.83019 c -1.2708,7.01561 -5.91667,13.35805 -12.6943,17.33001 -5.23455,3.06765 -7.05308,3.44937 -15.38275,3.2289 -9.81077,-0.25967 -14.74699,-2.21718 -20.38925,-8.08561 -11.19007,-11.63856 -8.82563,-34.38367 4.4737,-43.03571 4.6302,-3.01223 6.31738,-3.3574 16.41077,-3.3574 10.15419,0 11.76439,0.33441 16.53088,3.43322 6.04648,3.93095 8.2668,6.9371 10.52157,14.24548 1.51176,4.90004 1.90308,5.2158 7.27264,5.86841 9.64944,1.1728 11.72396,1.70094 18.14982,4.6207 11.7332,5.33128 24.61184,20.2664 27.44907,31.83219 2.8327,11.547404 3.09566,17.490494 1.18347,26.747954 -3.54304,17.15296 -13.75579,30.68932 -28.15725,37.32065 l -7.45209,3.4314 0.37595,8.41397 0.37594,8.41398 -8.81669,-8.76353 -8.8167,-8.76352 -1.55712,6.07561 c -4.1514,16.1979 -24.25911,23.89059 -41.12199,15.7322 z"
     id="path4200"
     inkscape:connector-curvature="0" />
</svg>
